<svg width="87" height="69" viewBox="0 0 87 69" fill="none" xmlns="http://www.w3.org/2000/svg">
<g clip-path="url(#clip0_532_123)">
<path d="M66.15 68.5001C64.8243 68.4989 63.5534 67.9714 62.6166 67.0334L56.5833 61.0001C54.7321 59.4167 53.6665 57.1027 53.6666 54.6667V51.8334C53.6666 49.9925 55.159 48.5001 57 48.5001V51.2501C57.0006 52.216 57.4201 53.1341 58.15 53.7667L58.6666 54.2834V32.6667C58.6666 31.286 59.7859 30.1667 61.1666 30.1667C62.5473 30.1667 63.6666 31.286 63.6666 32.6667V46.0001C63.6666 46.4603 64.0397 46.8334 64.5 46.8334C64.9602 46.8334 65.3333 46.4603 65.3333 46.0001V41.8334H70.7666C72.0923 41.8346 73.3632 42.3621 74.3 43.3001L78.8666 47.8667C79.8046 48.8035 80.3321 50.0744 80.3333 51.4001V54.1834C80.3403 55.9367 79.8862 57.661 79.0166 59.1834L74.6333 66.8334C74.0355 67.8689 72.9289 68.5048 71.7333 68.5001H66.15Z" fill="white"/>
</g>
<path d="M4 53.5C10.3333 40.3333 31.3 12.1 64.5 4.5" stroke="white" stroke-width="4"/>
<path d="M47 2H60C62.1407 2 63.5926 4.17778 62.7692 6.15385L57 20" stroke="white" stroke-width="4"/>
<path d="M2.48596 39.5L2.12723 52.0442C2.06641 54.1709 4.1774 55.6834 6.17163 54.9418L20.2009 49.7249" stroke="white" stroke-width="4"/>
<defs>
<clipPath id="clip0_532_123">
<rect width="40" height="40" fill="white" transform="translate(47 28.5)"/>
</clipPath>
</defs>
</svg>
