<svg width="33" height="33" viewBox="0 0 33 33" fill="none" xmlns="http://www.w3.org/2000/svg">
<circle cx="16.5" cy="16.5" r="15.5" fill="#946955" stroke="white" stroke-width="2"/>
<path d="M15.152 19.832H18.272C17.888 16.52 23.144 16.088 23.144 12.584C23.144 9.392 20.6 7.76 17.12 7.76C14.552 7.76 12.44 8.936 10.904 10.712L12.872 12.512C14.048 11.288 15.248 10.616 16.712 10.616C18.608 10.616 19.76 11.432 19.76 12.896C19.76 15.224 14.648 16.064 15.152 19.832ZM16.736 26.24C17.936 26.24 18.848 25.352 18.848 24.104C18.848 22.856 17.936 21.992 16.736 21.992C15.512 21.992 14.6 22.856 14.6 24.104C14.6 25.352 15.488 26.24 16.736 26.24Z" fill="white"/>
</svg>
