<svg width="29" height="29" viewBox="0 0 29 29" fill="none" xmlns="http://www.w3.org/2000/svg">
<circle cx="14.5" cy="14.5" r="14" fill="#946955" stroke="white"/>
<path d="M14.5 4.14307C8.77987 4.14307 4.14282 8.78012 4.14282 14.5002C4.14282 20.2203 8.77987 24.8574 14.5 24.8574C20.2201 24.8574 24.8571 20.2203 24.8571 14.5002C24.8571 11.7533 23.7659 9.11894 21.8236 7.1766C19.8812 5.23426 17.2469 4.14307 14.5 4.14307ZM14.5 22.7859C9.92389 22.7859 6.21425 19.0763 6.21425 14.5002C6.21425 9.92414 9.92389 6.21449 14.5 6.21449C19.076 6.21449 22.7857 9.92414 22.7857 14.5002C22.7857 16.6977 21.9127 18.8052 20.3589 20.3591C18.805 21.913 16.6975 22.7859 14.5 22.7859ZM15.4114 14.1274V8.80378C15.4114 8.51778 15.1795 8.28592 14.8935 8.28592H14.1064C13.8204 8.28592 13.5885 8.51778 13.5885 8.80378V14.6659C13.5936 14.8018 13.649 14.931 13.7439 15.0284L17.8868 19.1713C18.0916 19.3699 18.4172 19.3699 18.6221 19.1713L19.171 18.6224C19.3697 18.4175 19.3697 18.0919 19.171 17.887L15.4114 14.1274Z" fill="white"/>
</svg>
